<svg width="50" height="38" viewBox="0 0 50 38" fill="none" xmlns="http://www.w3.org/2000/svg">
<path d="M0 6.5C0 4.8424 0.65848 3.25268 1.83058 2.08058C3.00269 0.90848 4.5924 0.25 6.25 0.25H43.75C45.4076 0.25 46.9973 0.90848 48.1694 2.08058C49.3415 3.25268 50 4.8424 50 6.5V31.5C50 33.1576 49.3415 34.7473 48.1694 35.9194C46.9973 37.0915 45.4076 37.75 43.75 37.75H6.25C4.5924 37.75 3.00269 37.0915 1.83058 35.9194C0.65848 34.7473 0 33.1576 0 31.5V6.5ZM6.25 3.375C5.4212 3.375 4.62634 3.70424 4.04029 4.29029C3.45424 4.87634 3.125 5.6712 3.125 6.5V9.625H46.875V6.5C46.875 5.6712 46.5458 4.87634 45.9597 4.29029C45.3737 3.70424 44.5788 3.375 43.75 3.375H6.25ZM46.875 15.875H3.125V31.5C3.125 32.3288 3.45424 33.1237 4.04029 33.7097C4.62634 34.2958 5.4212 34.625 6.25 34.625H43.75C44.5788 34.625 45.3737 34.2958 45.9597 33.7097C46.5458 33.1237 46.875 32.3288 46.875 31.5V15.875Z" fill="#0B6056"/>
<path d="M6.25 25.25C6.25 24.4212 6.57924 23.6263 7.16529 23.0403C7.75134 22.4542 8.5462 22.125 9.375 22.125H12.5C13.3288 22.125 14.1237 22.4542 14.7097 23.0403C15.2958 23.6263 15.625 24.4212 15.625 25.25V28.375C15.625 29.2038 15.2958 29.9987 14.7097 30.5847C14.1237 31.1708 13.3288 31.5 12.5 31.5H9.375C8.5462 31.5 7.75134 31.1708 7.16529 30.5847C6.57924 29.9987 6.25 29.2038 6.25 28.375V25.25Z" fill="#0B6056"/>
</svg>
