<svg width="29" height="29" viewBox="0 0 29 29" fill="none" xmlns="http://www.w3.org/2000/svg">
<path d="M26.5852 14.498C26.5855 12.1467 25.8998 9.84648 24.6121 7.87915C23.3244 5.91182 21.4908 4.36292 19.3359 3.42228C17.181 2.48164 14.7984 2.19015 12.4803 2.58352C10.1622 2.97689 8.00919 4.03804 6.28521 5.6369H8.46021C8.78068 5.6369 9.08802 5.7642 9.31463 5.99081C9.54123 6.21742 9.66854 6.52476 9.66854 6.84523C9.66854 7.1657 9.54123 7.47305 9.31463 7.69965C9.08802 7.92626 8.78068 8.05356 8.46021 8.05356H3.62689C3.30642 8.05356 2.99907 7.92626 2.77247 7.69965C2.54586 7.47305 2.41856 7.1657 2.41856 6.84523V2.0119C2.41856 1.69143 2.54586 1.38408 2.77247 1.15748C2.99907 0.930872 3.30642 0.803566 3.62689 0.803566C3.94736 0.803566 4.2547 0.930872 4.48131 1.15748C4.70791 1.38408 4.83522 1.69143 4.83522 2.0119V3.69068C7.38145 1.41404 10.6496 0.109346 14.0637 0.0065703C17.4778 -0.0962053 20.8185 1.00954 23.4971 3.12889C26.1756 5.24824 28.0201 8.24514 28.7052 11.5913C29.3904 14.9375 28.8723 18.4182 27.2423 21.4197C25.6123 24.4213 22.975 26.7511 19.7953 27.9985C16.6156 29.2459 13.0977 29.3307 9.86156 28.2381C6.62543 27.1454 3.87889 24.9455 2.10608 22.026C0.333274 19.1065 -0.351998 15.6548 0.171059 12.2795C0.219572 11.995 0.368482 11.7372 0.59077 11.5531C0.813059 11.3689 1.094 11.2705 1.38261 11.2758C2.12372 11.2758 2.657 11.9815 2.54905 12.7129C2.3056 14.356 2.40353 16.0316 2.83671 17.6352C3.26989 19.2387 4.02903 20.7357 5.06672 22.0327C6.1044 23.3297 7.39835 24.3988 8.86776 25.1733C10.3372 25.9478 11.9505 26.411 13.6069 26.5341C15.2634 26.6571 16.9274 26.4373 18.4951 25.8883C20.0628 25.3394 21.5005 24.4732 22.7184 23.3437C23.9363 22.2142 24.9083 20.8457 25.5736 19.3238C26.2389 17.8018 26.5832 16.159 26.5852 14.498V14.498ZM15.3074 7.65079C15.3074 7.33032 15.1801 7.02297 14.9535 6.79637C14.7269 6.56976 14.4196 6.44245 14.0991 6.44245C13.7786 6.44245 13.4713 6.56976 13.2447 6.79637C13.0181 7.02297 12.8908 7.33032 12.8908 7.65079V14.9008C12.8908 15.5678 13.4321 16.1091 14.0991 16.1091H18.1269C18.4473 16.1091 18.7547 15.9818 18.9813 15.7552C19.2079 15.5286 19.3352 15.2213 19.3352 14.9008C19.3352 14.5803 19.2079 14.273 18.9813 14.0464C18.7547 13.8198 18.4473 13.6925 18.1269 13.6925H15.3074V7.65079Z" fill="white"/>
</svg>
