<svg width="23" height="23" viewBox="0 0 23 23" fill="none" xmlns="http://www.w3.org/2000/svg">
<path d="M21.0848 11.4984C21.085 9.63362 20.5412 7.80927 19.5199 6.24898C18.4987 4.68869 17.0444 3.46024 15.3353 2.71422C13.6263 1.9682 11.7367 1.73701 9.89817 2.049C8.05966 2.36098 6.35211 3.20258 4.98483 4.47064H6.70982C6.96399 4.47064 7.20774 4.57161 7.38746 4.75133C7.56719 4.93106 7.66815 5.17481 7.66815 5.42898C7.66815 5.68314 7.56719 5.9269 7.38746 6.10662C7.20774 6.28634 6.96399 6.38731 6.70982 6.38731H2.8765C2.62233 6.38731 2.37858 6.28634 2.19885 6.10662C2.01913 5.9269 1.91816 5.68314 1.91816 5.42898V1.59564C1.91816 1.34148 2.01913 1.09772 2.19885 0.918C2.37858 0.738278 2.62233 0.637311 2.8765 0.637311C3.13066 0.637311 3.37442 0.738278 3.55414 0.918C3.73386 1.09772 3.83483 1.34148 3.83483 1.59564V2.92709C5.85425 1.12148 8.44627 0.0867226 11.154 0.00521093C13.8617 -0.0763007 16.5112 0.800667 18.6356 2.48153C20.76 4.1624 22.2228 6.53925 22.7662 9.19312C23.3096 11.847 22.8987 14.6075 21.606 16.9881C20.3132 19.3686 18.2216 21.2164 15.6998 22.2057C13.1779 23.195 10.3878 23.2623 7.82123 22.3957C5.25465 21.5291 3.07636 19.7843 1.67034 17.4689C0.264321 15.1534 -0.279171 12.4159 0.135668 9.73892C0.174143 9.51324 0.292244 9.30882 0.468542 9.16277C0.64484 9.01671 0.867654 8.93869 1.09655 8.94286C1.68433 8.94286 2.10728 9.50253 2.02166 10.0826C1.82858 11.3858 1.90624 12.7147 2.2498 13.9865C2.59336 15.2583 3.19544 16.4456 4.01843 17.4742C4.84142 18.5029 5.86766 19.3508 7.03305 19.9651C8.19845 20.5793 9.47797 20.9467 10.7917 21.0443C12.1055 21.1418 13.4252 20.9675 14.6686 20.5321C15.9119 20.0968 17.0521 19.4097 18.018 18.5139C18.984 17.6182 19.7548 16.5328 20.2825 15.3258C20.8101 14.1187 21.0833 12.8158 21.0848 11.4984ZM12.1404 6.06787C12.1404 5.8137 12.0394 5.56994 11.8597 5.39022C11.68 5.2105 11.4362 5.10953 11.182 5.10953C10.9279 5.10953 10.6841 5.2105 10.5044 5.39022C10.3247 5.56994 10.2237 5.8137 10.2237 6.06787V11.8179C10.2237 12.3469 10.653 12.7762 11.182 12.7762H14.3765C14.6306 12.7762 14.8744 12.6752 15.0541 12.4955C15.2338 12.3158 15.3348 12.072 15.3348 11.8179C15.3348 11.5637 15.2338 11.3199 15.0541 11.1402C14.8744 10.9605 14.6306 10.8595 14.3765 10.8595H12.1404V6.06787Z" fill="#38635D"/>
</svg>
