<svg width="25" height="25" viewBox="0 0 25 25" fill="none" xmlns="http://www.w3.org/2000/svg">
<path d="M1.78571 0H0V23.2143C0 23.6879 0.188137 24.1421 0.523024 24.477C0.85791 24.8119 1.31211 25 1.78571 25H25V23.2143H1.78571V0Z" fill="#013832"/>
<path d="M25.0008 6.25H18.7508V8.03571H21.9562L15.1794 14.8125L11.3491 10.9732C11.266 10.8895 11.1673 10.8231 11.0585 10.7778C10.9497 10.7324 10.833 10.7091 10.7151 10.7091C10.5973 10.7091 10.4806 10.7324 10.3718 10.7778C10.2629 10.8231 10.1642 10.8895 10.0812 10.9732L3.57227 17.4911L4.83119 18.75L10.7151 12.8661L14.5455 16.7054C14.6285 16.789 14.7272 16.8555 14.836 16.9008C14.9448 16.9461 15.0615 16.9695 15.1794 16.9695C15.2973 16.9695 15.414 16.9461 15.5228 16.9008C15.6316 16.8555 15.7303 16.789 15.8133 16.7054L23.2151 9.29464V12.5H25.0008V6.25Z" fill="#013832"/>
</svg>
