<svg width="66" height="66" viewBox="0 0 66 66" fill="none" xmlns="http://www.w3.org/2000/svg">
<circle cx="33" cy="33" r="33" fill="#B0C5C0"/>
<path d="M48.7199 34.938C48.1993 33.744 47.0756 33.0031 45.7889 33.0031C44.9323 33.0031 44.128 33.3406 43.5227 33.9546L40.8956 36.619C37.8744 39.6831 35.224 40.9328 31.7458 40.9328H27.6121C27.304 40.9328 27.0536 40.6789 27.0536 40.3664C27.0536 40.0539 27.304 39.8 27.6121 39.8H30.4044C32.2518 39.8 33.7552 38.2752 33.7552 36.4015C33.7552 34.5278 32.2518 33.0031 30.4044 33.0031H21.4677C19.0038 33.0031 17 35.0353 17 37.5343V44.2678C17 46.221 18.2174 47.9462 20.0292 48.5602C22.6562 49.4528 25.386 49.9355 28.1451 49.9955L28.3049 49.9977C28.4076 49.9987 28.5104 50 28.6121 50C34.4535 50 40.1279 47.4001 44.2178 42.8373L48.1604 38.4386C49.026 37.4724 49.2405 36.131 48.7189 34.9382L48.7199 34.938ZM28.1939 47.7298C25.6607 47.6754 23.152 47.2324 20.7392 46.4124C19.839 46.1064 19.2346 45.2457 19.2346 44.2678V37.5343C19.2346 36.2849 20.2366 35.2687 21.4685 35.2687H30.4026C31.0179 35.2687 31.5196 35.7775 31.5196 36.4015C31.5196 37.0256 31.0179 37.5343 30.4026 37.5343H27.6103C26.0713 37.5343 24.818 38.8055 24.818 40.3664C24.818 41.9273 26.0713 43.1985 27.6103 43.1985H31.744C35.8252 43.1985 39.034 41.7099 42.4735 38.2208L45.1005 35.5564C45.2815 35.3729 45.5316 35.2687 45.7874 35.2687C46.3738 35.2687 46.6152 35.7173 46.6755 35.8556C46.7358 35.9926 46.9011 36.4764 46.5069 36.9158L42.5653 41.3134C38.8335 45.4765 33.6509 47.8533 28.34 47.7331M22.1847 29.7814C22.7577 30.2062 23.5026 30.3309 24.1818 30.1099C25.4004 29.7167 26.6547 29.5434 27.9202 29.6079C29.3231 29.6747 30.6836 30.0203 31.9659 30.6343C33.1955 31.2212 35.1134 31.8882 37.4767 31.8882C37.6744 31.8882 37.8744 31.8836 38.0788 31.8735C39.4962 31.8045 40.8879 31.4998 42.2147 30.9662C43.0624 30.6254 43.6109 29.8005 43.6109 28.865L43.6106 19.9383C43.6106 19.2144 43.2666 18.5279 42.6914 18.103C42.114 17.6749 41.3935 17.5581 40.7121 17.7791C39.8208 18.0679 38.8993 18.2378 37.9734 18.282C35.7986 18.392 34.0205 17.7814 32.9192 17.2569C31.3712 16.5161 29.726 16.0991 28.0272 16.0164C26.1965 15.9223 24.3927 16.2339 22.6682 16.9249C21.8205 17.2648 21.272 18.0893 21.272 19.0252V27.9531C21.272 28.6849 21.6049 29.3509 22.1857 29.7815L22.1847 29.7814ZM27.92 18.2797C29.3228 18.3464 30.6834 18.6921 31.9656 19.306C33.2982 19.9415 35.4426 20.6654 38.0785 20.5453C39.1999 20.491 40.3146 20.2859 41.3767 19.9382V28.8636L41.3912 28.859C40.2932 29.3008 39.1428 29.5534 37.9724 29.61C35.7976 29.7188 34.0194 29.1104 32.9182 28.5849C31.3702 27.8441 29.725 27.4271 28.0262 27.3444C27.824 27.3353 27.6218 27.3297 27.4196 27.3297C26.0972 27.3297 24.7826 27.5381 23.5059 27.9528L23.4892 19.032C24.9165 18.46 26.4067 18.2061 27.9212 18.2787L27.92 18.2797ZM32.4403 27.3436C34.2877 27.3436 35.7911 25.8188 35.7911 23.9451C35.7911 22.0714 34.2877 20.5466 32.4403 20.5466C30.5929 20.5466 29.0895 22.0714 29.0895 23.9451C29.0895 25.8188 30.5929 27.3436 32.4403 27.3436ZM32.4403 22.8123C33.0556 22.8123 33.5572 23.321 33.5572 23.9451C33.5572 24.5692 33.0556 25.0779 32.4403 25.0779C31.825 25.0779 31.3233 24.5692 31.3233 23.9451C31.3233 23.321 31.825 22.8123 32.4403 22.8123ZM24.6218 20.5466C24.6218 19.9213 25.1221 19.4138 25.7387 19.4138H26.8556C27.4722 19.4138 27.9725 19.9213 27.9725 20.5466C27.9725 21.172 27.4722 21.6795 26.8556 21.6795H25.7387C25.1221 21.6795 24.6218 21.172 24.6218 20.5466ZM36.908 27.3436C36.908 26.7182 37.4084 26.2107 38.0249 26.2107H39.1418C39.7584 26.2107 40.2588 26.7182 40.2588 27.3436C40.2588 27.9689 39.7584 28.4764 39.1418 28.4764H38.0249C37.4084 28.4764 36.908 27.9689 36.908 27.3436Z" fill="#256959"/>
</svg>
