<svg width="25" height="23" viewBox="0 0 25 23" fill="none" xmlns="http://www.w3.org/2000/svg">
<path d="M24 2.07H18.75V0.23C18.75 0.1035 18.6375 0 18.5 0H16.75C16.6125 0 16.5 0.1035 16.5 0.23V2.07H8.5V0.23C8.5 0.1035 8.3875 0 8.25 0H6.5C6.3625 0 6.25 0.1035 6.25 0.23V2.07H1C0.446875 2.07 0 2.48113 0 2.99V22.08C0 22.5889 0.446875 23 1 23H24C24.5531 23 25 22.5889 25 22.08V2.99C25 2.48113 24.5531 2.07 24 2.07ZM22.75 20.93H2.25V10.005H22.75V20.93ZM2.25 8.05V4.14H6.25V5.52C6.25 5.6465 6.3625 5.75 6.5 5.75H8.25C8.3875 5.75 8.5 5.6465 8.5 5.52V4.14H16.5V5.52C16.5 5.6465 16.6125 5.75 16.75 5.75H18.5C18.6375 5.75 18.75 5.6465 18.75 5.52V4.14H22.75V8.05H2.25Z" fill="#013832"/>
</svg>
