<svg width="34" height="33" viewBox="0 0 34 33" fill="none" xmlns="http://www.w3.org/2000/svg">
<ellipse opacity="0.5" cx="17" cy="16.4807" rx="17" ry="16.4807" fill="#777676" fill-opacity="0.7"/>
<path d="M10.7908 22.2983C10.8338 22.2983 10.8769 22.2935 10.9199 22.2862L14.5407 21.5713C14.5838 21.5616 14.6247 21.5397 14.6548 21.5034L23.78 11.2296C23.8 11.2072 23.8158 11.1806 23.8266 11.1513C23.8374 11.1219 23.843 11.0905 23.843 11.0588C23.843 11.027 23.8374 10.9956 23.8266 10.9663C23.8158 10.9369 23.8 10.9103 23.78 10.8879L20.2023 6.85739C20.1614 6.81135 20.1076 6.78711 20.0494 6.78711C19.9913 6.78711 19.9375 6.81135 19.8966 6.85739L10.7714 17.1312C10.7391 17.1675 10.7197 17.2111 10.7111 17.2596L10.0761 21.3362C10.0551 21.466 10.0626 21.5996 10.0979 21.7255C10.1331 21.8513 10.1951 21.9656 10.2784 22.0584C10.4205 22.2135 10.5992 22.2983 10.7908 22.2983ZM12.2417 18.0715L20.0494 9.28345L21.6274 11.06L13.8196 19.8481L11.9058 20.2286L12.2417 18.0715ZM24.1869 24.3342H8.34315C7.96213 24.3342 7.6543 24.6808 7.6543 25.1098V25.9823C7.6543 26.0889 7.73179 26.1762 7.82651 26.1762H24.7035C24.7983 26.1762 24.8757 26.0889 24.8757 25.9823V25.1098C24.8757 24.6808 24.5679 24.3342 24.1869 24.3342Z" fill="#777676"/>
</svg>
