<svg width="25" height="30" viewBox="0 0 25 30" fill="none" xmlns="http://www.w3.org/2000/svg">
<path d="M23.6591 10.5774L20.6136 29.0531C20.5659 29.3182 20.4284 29.558 20.2251 29.7309C20.0217 29.9038 19.7652 29.999 19.5 30H5.5C5.23481 29.999 4.97832 29.9038 4.77494 29.7309C4.57156 29.558 4.4341 29.3182 4.38636 29.0531L1.34091 10.5774C1.31468 10.4129 1.32376 10.2447 1.36755 10.0841C1.41134 9.92362 1.48878 9.77462 1.59458 9.64737C1.70037 9.52012 1.832 9.41764 1.98044 9.34696C2.12889 9.27627 2.29062 9.23906 2.45455 9.23787H22.5227C22.6886 9.2357 22.8529 9.27044 23.0041 9.33966C23.1553 9.40888 23.2898 9.51089 23.3981 9.63854C23.5064 9.76619 23.5858 9.91638 23.6309 10.0786C23.676 10.2408 23.6856 10.411 23.6591 10.5774ZM25 5.77367C25 6.07993 24.8803 6.37364 24.6672 6.59019C24.4541 6.80675 24.165 6.92841 23.8636 6.92841H1.13636C0.834981 6.92841 0.545943 6.80675 0.332833 6.59019C0.119724 6.37364 0 6.07993 0 5.77367C0 5.46742 0.119724 5.17371 0.332833 4.95715C0.545943 4.7406 0.834981 4.61894 1.13636 4.61894H6.81818V1.15473C6.81818 0.84848 6.93791 0.554769 7.15102 0.338214C7.36412 0.121659 7.65316 0 7.95455 0H17.0455C17.3468 0 17.6359 0.121659 17.849 0.338214C18.0621 0.554769 18.1818 0.84848 18.1818 1.15473V4.61894H23.8636C24.165 4.61894 24.4541 4.7406 24.6672 4.95715C24.8803 5.17371 25 5.46742 25 5.77367ZM15.9091 4.61894V2.30947H9.09091V4.61894H15.9091Z" fill="#7AA59B"/>
</svg>
