<svg width="26" height="5" viewBox="0 0 26 5" fill="none" xmlns="http://www.w3.org/2000/svg">
<path d="M2.70649 4C3.41219 4 3.98427 3.32843 3.98427 2.5C3.98427 1.67157 3.41219 1 2.70649 1C2.00079 1 1.42871 1.67157 1.42871 2.5C1.42871 3.32843 2.00079 4 2.70649 4Z" fill="#013832" stroke="#013832" stroke-width="2"/>
<path d="M12.9287 4C13.6344 4 14.2064 3.32843 14.2064 2.5C14.2064 1.67157 13.6344 1 12.9287 1C12.223 1 11.6509 1.67157 11.6509 2.5C11.6509 3.32843 12.223 4 12.9287 4Z" fill="#013832" stroke="#013832" stroke-width="2"/>
<path d="M23.1508 4C23.8565 4 24.4286 3.32843 24.4286 2.5C24.4286 1.67157 23.8565 1 23.1508 1C22.4451 1 21.873 1.67157 21.873 2.5C21.873 3.32843 22.4451 4 23.1508 4Z" fill="#013832" stroke="#013832" stroke-width="2"/>
</svg>
