<svg width="20" height="24" viewBox="0 0 20 24" fill="none" xmlns="http://www.w3.org/2000/svg">
<path d="M10.731 0.263217C10.5371 0.0946707 10.2741 0 10 0C9.72586 0 9.46293 0.0946707 9.26897 0.263217L2.37241 6.26341C2.18968 6.43403 2.0902 6.65969 2.09493 6.89286C2.09966 7.12603 2.20823 7.3485 2.39776 7.5134C2.5873 7.6783 2.843 7.77276 3.111 7.77688C3.379 7.78099 3.63838 7.69444 3.83448 7.53546L8.96552 3.07131V19.4999C8.96552 19.7386 9.07451 19.9675 9.26851 20.1363C9.46251 20.3051 9.72564 20.3999 10 20.3999C10.2744 20.3999 10.5375 20.3051 10.7315 20.1363C10.9255 19.9675 11.0345 19.7386 11.0345 19.4999V3.07131L16.1655 7.53546C16.2602 7.62388 16.3744 7.69481 16.5013 7.744C16.6282 7.79319 16.7652 7.81964 16.9041 7.82178C17.043 7.82391 17.181 7.80168 17.3098 7.75641C17.4386 7.71114 17.5556 7.64377 17.6538 7.5583C17.7521 7.47284 17.8295 7.37103 17.8815 7.25897C17.9336 7.1469 17.9591 7.02686 17.9567 6.90601C17.9542 6.78516 17.9238 6.66598 17.8673 6.55558C17.8107 6.44518 17.7292 6.34581 17.6276 6.26341L10.731 0.263217ZM1.03448 22.1999C0.760121 22.1999 0.496996 22.2948 0.302993 22.4636C0.10899 22.6323 0 22.8613 0 23.1C0 23.3387 0.10899 23.5676 0.302993 23.7364C0.496996 23.9052 0.760121 24 1.03448 24H18.9655C19.2399 24 19.503 23.9052 19.697 23.7364C19.891 23.5676 20 23.3387 20 23.1C20 22.8613 19.891 22.6323 19.697 22.4636C19.503 22.2948 19.2399 22.1999 18.9655 22.1999H1.03448Z" fill="#38635D"/>
</svg>
