<svg width="31" height="30" viewBox="0 0 31 30" fill="none" xmlns="http://www.w3.org/2000/svg">
<path d="M5.64588 24C5.72338 24 5.80088 23.9925 5.87838 23.9813L12.3961 22.875C12.4736 22.86 12.5473 22.8263 12.6015 22.77L29.0276 6.87375C29.0635 6.83906 29.092 6.79785 29.1115 6.75248C29.1309 6.70712 29.1409 6.65849 29.1409 6.60938C29.1409 6.56026 29.1309 6.51163 29.1115 6.46627C29.092 6.4209 29.0635 6.37969 29.0276 6.345L22.5874 0.10875C22.5138 0.0375001 22.4169 0 22.3123 0C22.2076 0 22.1108 0.0375001 22.0371 0.10875L5.611 16.005C5.55287 16.0613 5.518 16.1287 5.5025 16.2038L4.35938 22.5112C4.32168 22.7121 4.33515 22.9189 4.39862 23.1136C4.46209 23.3083 4.57364 23.4851 4.72362 23.6287C4.97937 23.8687 5.301 24 5.64588 24ZM8.25763 17.46L22.3123 3.8625L25.1526 6.61125L11.098 20.2088L7.65313 20.7975L8.25763 17.46ZM29.76 27.15H1.24C0.554125 27.15 0 27.6863 0 28.35V29.7C0 29.865 0.1395 30 0.31 30H30.69C30.8605 30 31 29.865 31 29.7V28.35C31 27.6863 30.4459 27.15 29.76 27.15Z" fill="#7AA59B"/>
</svg>
