<svg width="23" height="21" viewBox="0 0 23 21" fill="none" xmlns="http://www.w3.org/2000/svg">
<path d="M8.76378 19.4461C13.1586 15.8599 16.5964 12.9931 20.4203 9.91571C21.6828 8.83377 22.4823 7.77481 22.819 6.7389C23.4082 4.78402 22.5023 3.09119 20.9253 1.7665C19.4104 0.523402 17.7902 -0.0636186 16.0649 0.0054539C14.3396 0.0745264 12.6353 0.788159 10.952 2.14635L0.221245 10.9861L1.98868 12.4019L12.7194 3.59661C13.8205 2.73759 15.1309 1.92772 16.633 2.04273C18.9217 2.30639 20.943 4.60502 20.4204 6.22093C19.7577 7.6546 18.8442 8.30849 17.5799 9.34592C13.7338 12.4938 10.7349 14.9281 6.99641 17.9958C5.59141 19.0493 4.68276 19.3345 3.37743 18.3411C2.70413 17.7886 2.40956 17.2477 2.49372 16.7182C2.58711 16.1004 3.0133 15.6731 3.50364 15.2679L13.3086 7.22228C13.7565 6.85408 14.7766 6.14734 15.2022 6.46262C15.5288 7.08424 14.6878 7.67756 14.2765 8.0165L5.27106 15.406L6.99637 16.8563L16.0439 9.46681C17.6022 8.14793 18.7218 6.53626 16.9696 5.04691C15.0318 3.68212 12.9904 4.59326 11.5411 5.77206L1.73621 13.8176C0.726284 14.6464 0.151144 15.5442 0.0108997 16.511C-0.0997435 17.8665 0.645008 18.9545 1.65206 19.7914C2.59864 20.5639 3.62128 20.9918 4.89236 21C6.42055 20.9498 7.92314 20.1238 8.76378 19.4461Z" fill="#38635D"/>
</svg>
