<svg width="27" height="20" viewBox="0 0 27 20" fill="none" xmlns="http://www.w3.org/2000/svg">
<path d="M25.5377 8.66543C26.1541 9.46257 26.1541 10.5387 25.5377 11.3346C23.5963 13.8404 18.9383 19 13.5002 19C8.06205 19 3.40413 13.8404 1.46268 11.3346C1.16279 10.9529 1 10.4833 1 10C1 9.51668 1.16279 9.04712 1.46268 8.66543C3.40413 6.15957 8.06205 1 13.5002 1C18.9383 1 23.5963 6.15957 25.5377 8.66543V8.66543Z" stroke="#7AA59B" stroke-width="2" stroke-linecap="round" stroke-linejoin="round"/>
<path d="M13.5007 13.8571C15.6552 13.8571 17.4018 12.1302 17.4018 9.99997C17.4018 7.86972 15.6552 6.14282 13.5007 6.14282C11.3462 6.14282 9.59961 7.86972 9.59961 9.99997C9.59961 12.1302 11.3462 13.8571 13.5007 13.8571Z" stroke="#7AA59B" stroke-width="2" stroke-linecap="round" stroke-linejoin="round"/>
</svg>
