<svg width="47" height="50" viewBox="0 0 47 50" fill="none" xmlns="http://www.w3.org/2000/svg">
<circle cx="20" cy="20" r="20" fill="#DA5858" fill-opacity="0.5"/>
<path d="M27.8261 22H12.1739C12.0783 22 12 21.8579 12 21.6842V19.3158C12 19.1421 12.0783 19 12.1739 19H27.8261C27.9217 19 28 19.1421 28 19.3158V21.6842C28 21.8579 27.9217 22 27.8261 22Z" fill="#F03131"/>
<circle cx="34.5" cy="37.5" r="12.5" fill="#013832"/>
<path d="M32.606 43.9564L40.1062 36.4563L36.5437 32.8938L29.0436 40.394C28.9403 40.4974 28.8669 40.6268 28.8313 40.7685L28 45L32.2307 44.1687C32.3727 44.1332 32.5027 44.0598 32.606 43.9564ZM42.5274 34.035C42.83 33.7323 43 33.3219 43 32.8938C43 32.4658 42.83 32.0553 42.5274 31.7526L41.2474 30.4726C40.9447 30.17 40.5342 30 40.1062 30C39.6781 30 39.2677 30.17 38.965 30.4726L37.6849 31.7526L41.2474 35.3151L42.5274 34.035Z" fill="white"/>
</svg>
