<svg width="42" height="47" viewBox="0 0 42 47" fill="none" xmlns="http://www.w3.org/2000/svg">
<path d="M20.839 1.35791C21.128 0.984522 21.4858 0.674032 21.8917 0.444408C22.2976 0.214785 22.7437 0.0705886 23.2039 0.0201671C23.6642 -0.0302544 24.1296 0.0140998 24.5731 0.150663C25.0167 0.287226 25.4296 0.513285 25.788 0.815754L37.205 10.4444C37.8329 10.9738 38.2633 11.7118 38.4229 12.5325C38.5825 13.3532 38.4613 14.2056 38.08 14.9443C37.0818 14.6292 36.0437 14.4697 35 14.4708H33.95L34.993 13.2419L28.98 8.17097L24.0205 14.4744H19.509L26.2675 5.8867L23.5725 3.61327L15.1795 14.4708H10.6995L20.839 1.35791ZM29.75 32.5426C29.2859 32.5426 28.8407 32.733 28.5126 33.0719C28.1844 33.4108 28 33.8705 28 34.3498C28 34.829 28.1844 35.2887 28.5126 35.6276C28.8407 35.9665 29.2859 36.1569 29.75 36.1569H33.25C33.7141 36.1569 34.1592 35.9665 34.4874 35.6276C34.8156 35.2887 35 34.829 35 34.3498C35 33.8705 34.8156 33.4108 34.4874 33.0719C34.1592 32.733 33.7141 32.5426 33.25 32.5426H29.75ZM3.5 16.278C3.5 15.7987 3.68437 15.339 4.01256 15.0001C4.34075 14.6612 4.78587 14.4708 5.25 14.4708H7.203L9.9855 10.8564H5.25C3.85761 10.8564 2.52226 11.4276 1.53769 12.4444C0.553124 13.4611 0 14.8401 0 16.278V37.9641C0 40.3606 0.921872 42.6589 2.56282 44.3534C4.20376 46.048 6.42936 47 8.75 47H35C36.8565 47 38.637 46.2384 39.9497 44.8828C41.2625 43.5271 42 41.6885 42 39.7713V25.3139C42 23.3967 41.2625 21.558 39.9497 20.2024C38.637 18.8467 36.8565 18.0851 35 18.0851H5.25C4.78587 18.0851 4.34075 17.8947 4.01256 17.5558C3.68437 17.2169 3.5 16.7573 3.5 16.278ZM3.5 37.9641V21.3923C4.046 21.5911 4.6375 21.6995 5.25 21.6995H35C35.9283 21.6995 36.8185 22.0803 37.4749 22.7581C38.1312 23.4359 38.5 24.3553 38.5 25.3139V39.7713C38.5 40.7299 38.1312 41.6492 37.4749 42.327C36.8185 43.0048 35.9283 43.3856 35 43.3856H8.75C7.35761 43.3856 6.02226 42.8144 5.03769 41.7977C4.05312 40.781 3.5 39.402 3.5 37.9641Z" fill="#0B6056"/>
</svg>
