<svg width="74" height="74" viewBox="0 0 74 74" fill="none" xmlns="http://www.w3.org/2000/svg">
<circle cx="37" cy="37" r="37" fill="#376964"/>
<path d="M30.7051 29.1776V43.1827V43.3828H33.0602C34.4732 43.3828 34.8919 42.1824 34.9246 41.5821V27.377H32.0789C30.9798 27.377 30.7051 28.5774 30.7051 29.1776Z" fill="white"/>
<path d="M42.3594 29.1776V43.1827V43.3828H44.7145C46.1275 43.3828 46.5462 42.1824 46.5789 41.5821V27.377H43.7332C42.6341 27.377 42.3594 28.5774 42.3594 29.1776Z" fill="white"/>
<path d="M47.3828 41.4915C47.865 43.6523 50.4638 43.659 51.7028 43.3922V32.7884L60.5438 42.2918C61.8298 43.5723 63.4239 43.559 64.0601 43.3922C65.3461 43.0721 65.7346 41.8583 65.7681 41.2915C65.7681 41.2915 65.8685 30.4776 65.7681 28.777C65.6676 27.0764 61.5485 27.3864 61.5485 27.3864V37.5901L52.607 28.5868C51.6426 27.6265 50.2628 27.3864 49.6935 27.3864H47.3828V41.4915Z" fill="white"/>
<path d="M8 41.7822C8.64298 43.783 11.081 43.6829 12.2196 43.3828V33.2791L16.7405 42.1824C18.5087 44.6633 20.4243 43.2161 21.161 42.1824L25.7824 33.2791V41.7822C26.0236 43.4628 28.696 43.5495 30.002 43.3828V28.6774C29.8413 27.7971 28.9304 27.4436 28.495 27.377H24.3759L18.9508 38.0809L13.9275 27.377H9.80838C8.68317 27.377 8.13395 28.2439 8 28.6774V41.7822Z" fill="white"/>
<path d="M41.757 27.377H34.5234V31.1783C35.8295 31.2194 38.743 31.1783 40.1495 31.1783C41.556 31.1783 41.7905 28.4023 41.757 27.377Z" fill="white"/>
<path d="M40.1496 33.5791H32.916V36.9803C34.2221 37.0268 37.1356 36.9803 38.5421 36.9803C39.9486 36.9803 40.183 34.7405 40.1496 33.5791Z" fill="white"/>
</svg>
