<svg width="126" height="126" viewBox="0 0 126 126" fill="none" xmlns="http://www.w3.org/2000/svg">
<circle cx="63" cy="63" r="63" fill="#376964"/>
<path d="M52.6602 49.6802V73.5268V73.8675H56.6702C59.0762 73.8675 59.7891 71.8235 59.8448 70.8015V46.6143H54.9993C53.128 46.6143 52.6602 48.6582 52.6602 49.6802Z" fill="white"/>
<path d="M72.5039 49.6802V73.5268V73.8675H76.514C78.92 73.8675 79.6329 71.8235 79.6886 70.8015V46.6143H74.8431C72.9717 46.6143 72.5039 48.6582 72.5039 49.6802Z" fill="white"/>
<path d="M81.0566 70.6483C81.8777 74.3275 86.3026 74.3389 88.4124 73.8846V55.8294L103.466 72.011C105.656 74.1912 108.37 74.1685 109.453 73.8846C111.643 73.3396 112.304 71.2729 112.361 70.3076C112.361 70.3076 112.532 51.8949 112.361 48.9993C112.19 46.1036 105.177 46.6314 105.177 46.6314V64.0053L89.9519 48.6754C88.3097 47.0402 85.9605 46.6314 84.9911 46.6314H81.0566V70.6483Z" fill="white"/>
<path d="M14 71.1431C15.0948 74.5498 19.2459 74.3794 21.1847 73.8684V56.6649L28.8825 71.8245C31.8932 76.0487 35.1548 73.5846 36.4093 71.8245L44.2782 56.6649V71.1431C44.6888 74.0047 49.2391 74.1523 51.4629 73.8684V48.8296C51.1892 47.3306 49.6382 46.7288 48.8969 46.6152H41.8833L32.6459 64.8408L24.0927 46.6152H17.0791C15.1632 46.6152 14.2281 48.0914 14 48.8296V71.1431Z" fill="white"/>
<path d="M71.4767 46.6143H59.1602V53.0869C61.384 53.1567 66.3448 53.0869 68.7397 53.0869C71.1346 53.0869 71.5337 48.3601 71.4767 46.6143Z" fill="white"/>
<path d="M68.7404 57.1758H56.4238V62.9671C58.6477 63.0462 63.6085 62.9671 66.0034 62.9671C68.3983 62.9671 68.7974 59.1532 68.7404 57.1758Z" fill="white"/>
</svg>
