<svg width="29" height="31" viewBox="0 0 29 31" fill="none" xmlns="http://www.w3.org/2000/svg">
<path d="M14.5046 30.2781C15.1158 30.2646 15.7024 30.044 16.1605 29.6553C16.6186 29.2666 16.9188 28.735 17.0079 28.1543H11.9043C11.996 28.7507 12.3102 29.2949 12.7885 29.6856C13.2668 30.0762 13.8767 30.2868 14.5046 30.2781V30.2781Z" fill="white"/>
<path d="M28.5841 24.2698C27.6484 23.469 26.8293 22.551 26.1487 21.5405C25.4057 20.1457 24.9604 18.6224 24.8388 17.0601V12.4586C24.8349 11.8996 24.783 11.342 24.6836 10.7912C23.9199 10.6447 23.186 10.3804 22.5102 10.0088C22.7678 10.8051 22.8986 11.6341 22.8983 12.4679V17.0694C23.0172 18.9753 23.5633 20.834 24.4993 22.5186C25.1691 23.5376 25.964 24.4758 26.8667 25.313H2.01816C2.9209 24.4758 3.71574 23.5376 4.38561 22.5186C5.32154 20.834 5.86763 18.9753 5.98655 17.0694V12.4586C5.98144 11.3806 6.19788 10.3122 6.62347 9.31457C7.04907 8.31697 7.67545 7.40976 8.46676 6.64488C9.25808 5.88001 10.1988 5.2725 11.235 4.85714C12.2712 4.44177 13.3826 4.22671 14.5055 4.22427C16.1489 4.22554 17.7554 4.69211 19.124 5.56561C18.9731 5.03372 18.8884 4.48654 18.8717 3.93551V3.34868C17.8586 2.87023 16.7702 2.55551 15.6504 2.4172V1.24353C15.6504 0.913725 15.5139 0.597428 15.271 0.364221C15.0281 0.131014 14.6986 0 14.3551 0C14.0116 0 13.6821 0.131014 13.4392 0.364221C13.1963 0.597428 13.0598 0.913725 13.0598 1.24353V2.46377C10.5524 2.80335 8.25753 4.00234 6.599 5.8394C4.94047 7.67646 4.03023 10.0275 4.03631 12.4586V17.0601C3.91479 18.6224 3.46946 20.1457 2.72645 21.5405C2.05782 22.5487 1.25183 23.4666 0.329891 24.2698C0.226394 24.3571 0.143446 24.4645 0.0865648 24.585C0.0296839 24.7054 0.00017445 24.8361 0 24.9684V26.2352C0 26.4823 0.102224 26.7192 0.284185 26.8939C0.466145 27.0686 0.712937 27.1667 0.970268 27.1667H27.9437C28.201 27.1667 28.4478 27.0686 28.6298 26.8939C28.8117 26.7192 28.914 26.4823 28.914 26.2352V24.9684C28.9138 24.8361 28.8843 24.7054 28.8274 24.585C28.7705 24.4645 28.6876 24.3571 28.5841 24.2698V24.2698Z" fill="white"/>
</svg>
