<svg width="22" height="20" viewBox="0 0 22 20" fill="none" xmlns="http://www.w3.org/2000/svg">
<path fill-rule="evenodd" clip-rule="evenodd" d="M6.25 18C6.25 17.7348 6.33231 17.4804 6.47882 17.2929C6.62534 17.1054 6.82405 17 7.03125 17H21.0938C21.301 17 21.4997 17.1054 21.6462 17.2929C21.7927 17.4804 21.875 17.7348 21.875 18C21.875 18.2652 21.7927 18.5196 21.6462 18.7071C21.4997 18.8946 21.301 19 21.0938 19H7.03125C6.82405 19 6.62534 18.8946 6.47882 18.7071C6.33231 18.5196 6.25 18.2652 6.25 18ZM6.25 10C6.25 9.73478 6.33231 9.48043 6.47882 9.29289C6.62534 9.10536 6.82405 9 7.03125 9H21.0938C21.301 9 21.4997 9.10536 21.6462 9.29289C21.7927 9.48043 21.875 9.73478 21.875 10C21.875 10.2652 21.7927 10.5196 21.6462 10.7071C21.4997 10.8946 21.301 11 21.0938 11H7.03125C6.82405 11 6.62534 10.8946 6.47882 10.7071C6.33231 10.5196 6.25 10.2652 6.25 10ZM6.25 2C6.25 1.73478 6.33231 1.48043 6.47882 1.29289C6.62534 1.10536 6.82405 1 7.03125 1H21.0938C21.301 1 21.4997 1.10536 21.6462 1.29289C21.7927 1.48043 21.875 1.73478 21.875 2C21.875 2.26522 21.7927 2.51957 21.6462 2.70711C21.4997 2.89464 21.301 3 21.0938 3H7.03125C6.82405 3 6.62534 2.89464 6.47882 2.70711C6.33231 2.51957 6.25 2.26522 6.25 2ZM1.5625 4C1.9769 4 2.37433 3.78929 2.66735 3.41421C2.96038 3.03914 3.125 2.53043 3.125 2C3.125 1.46957 2.96038 0.960859 2.66735 0.585786C2.37433 0.210714 1.9769 0 1.5625 0C1.1481 0 0.750671 0.210714 0.457646 0.585786C0.16462 0.960859 0 1.46957 0 2C0 2.53043 0.16462 3.03914 0.457646 3.41421C0.750671 3.78929 1.1481 4 1.5625 4V4ZM1.5625 12C1.9769 12 2.37433 11.7893 2.66735 11.4142C2.96038 11.0391 3.125 10.5304 3.125 10C3.125 9.46957 2.96038 8.96086 2.66735 8.58579C2.37433 8.21071 1.9769 8 1.5625 8C1.1481 8 0.750671 8.21071 0.457646 8.58579C0.16462 8.96086 0 9.46957 0 10C0 10.5304 0.16462 11.0391 0.457646 11.4142C0.750671 11.7893 1.1481 12 1.5625 12V12ZM1.5625 20C1.9769 20 2.37433 19.7893 2.66735 19.4142C2.96038 19.0391 3.125 18.5304 3.125 18C3.125 17.4696 2.96038 16.9609 2.66735 16.5858C2.37433 16.2107 1.9769 16 1.5625 16C1.1481 16 0.750671 16.2107 0.457646 16.5858C0.16462 16.9609 0 17.4696 0 18C0 18.5304 0.16462 19.0391 0.457646 19.4142C0.750671 19.7893 1.1481 20 1.5625 20V20Z" fill="#013832"/>
</svg>
