<svg width="25" height="25" viewBox="0 0 25 25" fill="none" xmlns="http://www.w3.org/2000/svg">
<path fill-rule="evenodd" clip-rule="evenodd" d="M18.3036 0C18.6588 0 18.9994 0.141103 19.2506 0.392268C19.5018 0.643433 19.6429 0.984085 19.6429 1.33929V3.57143H23.2143C23.6879 3.57143 24.1421 3.75957 24.477 4.09445C24.8119 4.42934 25 4.88354 25 5.35714V23.2143C25 23.6879 24.8119 24.1421 24.477 24.477C24.1421 24.8119 23.6879 25 23.2143 25H1.78571C1.31211 25 0.85791 24.8119 0.523024 24.477C0.188137 24.1421 0 23.6879 0 23.2143V5.35714C0 4.88354 0.188137 4.42934 0.523024 4.09445C0.85791 3.75957 1.31211 3.57143 1.78571 3.57143H5.35714V1.33929C5.35714 0.984085 5.49825 0.643433 5.74941 0.392268C6.00058 0.141103 6.34123 0 6.69643 0C7.05163 0 7.39228 0.141103 7.64345 0.392268C7.89461 0.643433 8.03571 0.984085 8.03571 1.33929V3.57143H16.9643V1.33929C16.9643 0.984085 17.1054 0.643433 17.3566 0.392268C17.6077 0.141103 17.9484 0 18.3036 0V0ZM2.67857 11.6071V22.3214H22.3214V11.6071H2.67857ZM2.67857 8.92857H22.3214V6.25H2.67857V8.92857ZM16.5714 14.2321C16.8222 14.4833 16.9631 14.8237 16.9631 15.1786C16.9631 15.5335 16.8222 15.8739 16.5714 16.125L12.5536 20.1429C12.3025 20.3937 11.9621 20.5345 11.6071 20.5345C11.2522 20.5345 10.9118 20.3937 10.6607 20.1429L8.42857 17.9107C8.29699 17.7881 8.19145 17.6402 8.11825 17.476C8.04505 17.3117 8.00569 17.1343 8.00252 16.9545C7.99934 16.7747 8.03242 16.5961 8.09978 16.4293C8.16714 16.2625 8.2674 16.111 8.39457 15.9839C8.52175 15.8567 8.67324 15.7564 8.84 15.6891C9.00677 15.6217 9.18539 15.5886 9.36522 15.5918C9.54505 15.595 9.72239 15.6343 9.88668 15.7075C10.051 15.7807 10.1988 15.8863 10.3214 16.0179L11.6071 17.3036L14.6786 14.2321C14.9297 13.9813 15.2701 13.8405 15.625 13.8405C15.9799 13.8405 16.3203 13.9813 16.5714 14.2321V14.2321Z" fill="#013832"/>
</svg>
