<svg width="30" height="30" viewBox="0 0 30 30" fill="none" xmlns="http://www.w3.org/2000/svg">
<path d="M12.0417 20.4634C12.1521 20.6174 12.2976 20.743 12.4662 20.8296C12.6348 20.9162 12.8216 20.9613 13.0111 20.9613C13.2006 20.9613 13.3874 20.9162 13.556 20.8296C13.7246 20.743 13.8701 20.6174 13.9805 20.4634L21.878 9.51336C22.0205 9.31461 21.878 9.03711 21.6342 9.03711H19.8755C19.493 9.03711 19.1292 9.22086 18.9042 9.53586L13.013 17.7109L10.343 14.0059C10.118 13.6946 9.75797 13.5071 9.37172 13.5071H7.61297C7.36922 13.5071 7.22672 13.7846 7.36922 13.9834L12.0417 20.4634Z" fill="#7AA59B"/>
<path d="M28.8 0H1.2C0.53625 0 0 0.53625 0 1.2V28.8C0 29.4638 0.53625 30 1.2 30H28.8C29.4638 30 30 29.4638 30 28.8V1.2C30 0.53625 29.4638 0 28.8 0ZM27.3 27.3H2.7V2.7H27.3V27.3Z" fill="#7AA59B"/>
</svg>
