<svg width="25" height="25" viewBox="0 0 25 25" xmlns="http://www.w3.org/2000/svg">
<path d="M15.0396 0C15.2336 5.95682e-06 15.4225 0.0600068 15.5793 0.171362C15.736 0.282716 15.8525 0.439679 15.9118 0.619643L16.9196 3.67143C17.3429 3.87321 17.7478 4.1 18.1344 4.35536L21.352 3.68036C21.5417 3.64088 21.7394 3.66111 21.9166 3.73813C22.0937 3.81515 22.2412 3.94498 22.3378 4.10893L24.8774 8.39286C24.9744 8.55671 25.0155 8.74634 24.9948 8.93441C24.974 9.12248 24.8925 9.29927 24.762 9.43929L22.554 11.8143C22.5862 12.2697 22.5862 12.7267 22.554 13.1821L24.762 15.5607C24.8925 15.7007 24.974 15.8775 24.9948 16.0656C25.0155 16.2537 24.9744 16.4433 24.8774 16.6071L22.3378 20.8929C22.241 21.0565 22.0933 21.1859 21.9162 21.2626C21.7391 21.3393 21.5415 21.3593 21.352 21.3196L18.1344 20.6446C17.7496 20.8982 17.3429 21.1268 16.9214 21.3286L15.9118 24.3804C15.8525 24.5603 15.736 24.7173 15.5793 24.8286C15.4225 24.94 15.2336 25 15.0396 25H9.96038C9.76641 25 9.57745 24.94 9.42071 24.8286C9.26397 24.7173 9.14754 24.5603 9.08819 24.3804L8.08223 21.3304C7.6601 21.1292 7.25293 20.8995 6.86373 20.6429L3.64798 21.3196C3.45826 21.3591 3.26059 21.3389 3.08343 21.2619C2.90628 21.1848 2.75877 21.055 2.66218 20.8911L0.122557 16.6071C0.0255797 16.4433 -0.0154969 16.2537 0.0052501 16.0656C0.0259971 15.8775 0.107496 15.7007 0.237994 15.5607L2.44596 13.1821C2.41398 12.7279 2.41398 12.2721 2.44596 11.8179L0.237994 9.43929C0.107496 9.29927 0.0259971 9.12248 0.0052501 8.93441C-0.0154969 8.74634 0.0255797 8.55671 0.122557 8.39286L2.66218 4.10714C2.75904 3.94352 2.90666 3.81406 3.08379 3.73737C3.26093 3.66068 3.45846 3.64072 3.64798 3.68036L6.86373 4.35714C7.25218 4.10179 7.65896 3.87143 8.08223 3.66964L9.09002 0.619643C9.14918 0.440258 9.26506 0.283712 9.42106 0.172411C9.57707 0.0611097 9.76521 0.00076012 9.95855 0H15.0378H15.0396ZM14.369 1.78571H10.631L9.59025 4.94107L8.88846 5.275C8.54346 5.43953 8.21042 5.62687 7.89167 5.83571L7.24302 6.26429L3.9155 5.56429L2.04651 8.72143L4.32777 11.1821L4.2728 11.9393C4.24647 12.3127 4.24647 12.6873 4.2728 13.0607L4.32777 13.8179L2.04285 16.2786L3.91366 19.4357L7.24119 18.7375L7.88984 19.1643C8.20859 19.3731 8.54163 19.5605 8.88663 19.725L9.58841 20.0589L10.631 23.2143H14.3727L15.4171 20.0571L16.117 19.725C16.4617 19.5609 16.7941 19.3735 17.112 19.1643L17.7588 18.7375L21.0882 19.4357L22.9572 16.2786L20.6741 13.8179L20.729 13.0607C20.7554 12.6868 20.7554 12.3115 20.729 11.9375L20.6741 11.1804L22.959 8.72143L21.0882 5.56429L17.7588 6.26071L17.112 5.83571C16.7941 5.62645 16.4617 5.43909 16.117 5.275L15.4171 4.94286L14.3708 1.78571H14.369ZM12.5 7.14286C13.9579 7.14286 15.3561 7.70727 16.387 8.71193C17.4179 9.71659 17.997 11.0792 17.997 12.5C17.997 13.9208 17.4179 15.2834 16.387 16.2881C15.3561 17.2927 13.9579 17.8571 12.5 17.8571C11.0421 17.8571 9.64391 17.2927 8.61302 16.2881C7.58213 15.2834 7.00299 13.9208 7.00299 12.5C7.00299 11.0792 7.58213 9.71659 8.61302 8.71193C9.64391 7.70727 11.0421 7.14286 12.5 7.14286V7.14286ZM12.5 8.92857C11.5281 8.92857 10.5959 9.30485 9.90868 9.97462C9.22142 10.6444 8.83532 11.5528 8.83532 12.5C8.83532 13.4472 9.22142 14.3556 9.90868 15.0254C10.5959 15.6952 11.5281 16.0714 12.5 16.0714C13.4719 16.0714 14.4041 15.6952 15.0913 15.0254C15.7786 14.3556 16.1647 13.4472 16.1647 12.5C16.1647 11.5528 15.7786 10.6444 15.0913 9.97462C14.4041 9.30485 13.4719 8.92857 12.5 8.92857V8.92857Z" fill="#013832"/>
</svg>
