<svg width="14" height="15" viewBox="0 0 14 15" xmlns="http://www.w3.org/2000/svg">
<path fill-rule="evenodd" clip-rule="evenodd" d="M0.000893658 10.781C0.000893658 10.9053 0.0535653 11.0245 0.147322 11.1124C0.241078 11.2003 0.368239 11.2497 0.50083 11.2497H12.2923L9.14573 14.1988C9.05185 14.2869 8.99911 14.4062 8.99911 14.5307C8.99911 14.6552 9.05185 14.7745 9.14573 14.8625C9.2396 14.9506 9.36692 15 9.49968 15C9.63244 15 9.75976 14.9506 9.85364 14.8625L13.8531 11.1128C13.8997 11.0693 13.9366 11.0176 13.9618 10.9606C13.987 10.9037 14 10.8426 14 10.781C14 10.7193 13.987 10.6583 13.9618 10.6013C13.9366 10.5444 13.8997 10.4927 13.8531 10.4491L9.85364 6.69944C9.75976 6.61143 9.63244 6.56198 9.49968 6.56198C9.36692 6.56198 9.2396 6.61143 9.14573 6.69944C9.05185 6.78745 8.99911 6.90682 8.99911 7.03129C8.99911 7.15576 9.05185 7.27512 9.14573 7.36314L12.2923 10.3123H0.50083C0.368239 10.3123 0.241078 10.3617 0.147322 10.4496C0.0535653 10.5375 0.000893658 10.6567 0.000893658 10.781ZM13.9991 4.21901C13.9991 4.34332 13.9464 4.46254 13.8527 4.55044C13.7589 4.63834 13.6318 4.68772 13.4992 4.68772H1.70768L4.85427 7.63686C4.90076 7.68044 4.93763 7.73218 4.96278 7.78912C4.98794 7.84606 5.00089 7.90708 5.00089 7.96871C5.00089 8.03034 4.98794 8.09137 4.96278 8.14831C4.93763 8.20525 4.90076 8.25698 4.85427 8.30056C4.80779 8.34414 4.75261 8.37871 4.69188 8.40229C4.63115 8.42588 4.56605 8.43802 4.50032 8.43802C4.43458 8.43802 4.36949 8.42588 4.30876 8.40229C4.24803 8.37871 4.19285 8.34414 4.14636 8.30056L0.146875 4.55086C0.100318 4.50732 0.0633796 4.4556 0.0381764 4.39865C0.0129731 4.34171 0 4.28066 0 4.21901C0 4.15736 0.0129731 4.09631 0.0381764 4.03937C0.0633796 3.98242 0.100318 3.9307 0.146875 3.88716L4.14636 0.137456C4.24024 0.0494445 4.36756 0 4.50032 0C4.63308 0 4.7604 0.0494445 4.85427 0.137456C4.94815 0.225468 5.00089 0.344838 5.00089 0.469305C5.00089 0.593773 4.94815 0.713142 4.85427 0.801154L1.70768 3.7503H13.4992C13.6318 3.7503 13.7589 3.79968 13.8527 3.88758C13.9464 3.97548 13.9991 4.0947 13.9991 4.21901Z" fill="white"/>
</svg>
