<svg width="23" height="29" viewBox="0 0 23 29" fill="none" xmlns="http://www.w3.org/2000/svg">
<path d="M0 29C0 26.07 1.2116 23.26 3.36827 21.1882C5.52494 19.1163 8.45001 17.9524 11.5 17.9524C14.55 17.9524 17.4751 19.1163 19.6317 21.1882C21.7884 23.26 23 26.07 23 29H20.125C20.125 26.8025 19.2163 24.695 17.5988 23.1411C15.9813 21.5872 13.7875 20.7143 11.5 20.7143C9.21251 20.7143 7.01871 21.5872 5.4012 23.1411C3.7837 24.695 2.875 26.8025 2.875 29H0ZM11.5 16.5714C6.73469 16.5714 2.875 12.8636 2.875 8.28571C2.875 3.70786 6.73469 0 11.5 0C16.2653 0 20.125 3.70786 20.125 8.28571C20.125 12.8636 16.2653 16.5714 11.5 16.5714ZM11.5 13.8095C14.6769 13.8095 17.25 11.3376 17.25 8.28571C17.25 5.23381 14.6769 2.7619 11.5 2.7619C8.32312 2.7619 5.75 5.23381 5.75 8.28571C5.75 11.3376 8.32312 13.8095 11.5 13.8095Z" fill="white"/>
</svg>
